<svg xmlns="http://www.w3.org/2000/svg" xmlns:xlink="http://www.w3.org/1999/xlink" version="1.1" width="500" height="500" viewBox="0 0 500 500" xml:space="preserve"><g xmlns="http://www.w3.org/2000/svg" transform="matrix(5.032346271609568 0 0 5.032346271609568 250.25 250.4380418766775)">
<path style="stroke: none; stroke-width: 0; stroke-dasharray: none; stroke-linecap: butt; stroke-dashoffset: 0; stroke-linejoin: miter; stroke-miterlimit: 4; fill: #aa72ce; fill-rule: evenodd; opacity: 1;" transform=" translate(-31.49749999999999, -29.0044)" d="M 4 40.0044 C 3.449 40.0044 3 39.5554 3 39.0044 C 3 38.4534 3.449 38.0044 4 38.0044 L 9.926 38.0044 C 9.951 38.0044 9.975 38.0074 10 38.0074 L 16.061 38.0074 L 16.059 38.0044 L 18.463 38.0044 L 18.465 38.0074 L 30.995 38.0074 L 32 38.0074 L 44.53 38.0074 L 44.532 38.0044 L 46.936 38.0044 L 46.934 38.0074 L 52.995 38.0074 C 53.02 38.0074 53.044 38.0044 53.069 38.0044 L 58 38.0044 C 58.551 38.0044 59 38.4534 59 39.0044 C 59 39.5554 58.551 40.0044 58 40.0044 L 4 40.0044 Z M 30 18.4384 L 30 15.9674 L 30 15.9544 C 29.437 15.5984 28.737 15.2264 27.908 14.9034 L 31 9.9054 L 34.095 14.9074 C 33.255 15.2344 32.567 15.6094 32 15.9674 L 32 16.6624 L 32 18.4384 L 32 36.0044 L 30 36.0044 L 30 18.4384 Z M 12 47.0044 C 12 47.5564 11.552 48.0044 11 48.0044 L 9 48.0044 C 8.448 48.0044 8 47.5564 8 47.0044 C 8 46.4524 8.448 46.0044 9 46.0044 L 11 46.0044 C 11.552 46.0044 12 46.4524 12 47.0044 L 12 47.0044 Z M 16 47.0044 C 16 47.5564 15.552 48.0044 15 48.0044 C 14.448 48.0044 14 47.5564 14 47.0044 C 14 46.4524 14.448 46.0044 15 46.0044 C 15.552 46.0044 16 46.4524 16 47.0044 L 16 47.0044 Z M 28 47.0044 C 28 47.5564 27.552 48.0044 27 48.0044 L 19 48.0044 C 18.448 48.0044 18 47.5564 18 47.0044 C 18 46.4524 18.448 46.0044 19 46.0044 L 27 46.0044 C 27.552 46.0044 28 46.4524 28 47.0044 L 28 47.0044 Z M 32 47.0044 C 32 47.5564 31.552 48.0044 31 48.0044 C 30.448 48.0044 30 47.5564 30 47.0044 C 30 46.4524 30.448 46.0044 31 46.0044 C 31.552 46.0044 32 46.4524 32 47.0044 L 32 47.0044 Z M 44 47.0044 C 44 47.5564 43.552 48.0044 43 48.0044 L 35 48.0044 C 34.448 48.0044 34 47.5564 34 47.0044 C 34 46.4524 34.448 46.0044 35 46.0044 L 43 46.0044 C 43.552 46.0044 44 46.4524 44 47.0044 L 44 47.0044 Z M 48 47.0044 C 48 47.5564 47.552 48.0044 47 48.0044 C 46.448 48.0044 46 47.5564 46 47.0044 C 46 46.4524 46.448 46.0044 47 46.0044 C 47.552 46.0044 48 46.4524 48 47.0044 L 48 47.0044 Z M 54 47.0044 C 54 47.5564 53.552 48.0044 53 48.0044 L 51 48.0044 C 50.448 48.0044 50 47.5564 50 47.0044 C 50 46.4524 50.448 46.0044 51 46.0044 L 53 46.0044 C 53.552 46.0044 54 46.4524 54 47.0044 L 54 47.0044 Z M 59 55.0044 C 59 55.5554 58.551 56.0044 58 56.0044 L 4 56.0044 C 3.449 56.0044 3 55.5554 3 55.0044 C 3 54.4534 3.449 54.0044 4 54.0044 L 58 54.0044 C 58.551 54.0044 59 54.4534 59 55.0044 L 59 55.0044 Z M 61 39.0044 C 61 37.6204 60.053 36.4634 58.776 36.1194 C 58.996 35.9344 59.208 35.7364 59.409 35.5254 C 62.201 32.5844 62.003 28.1434 61.994 27.9554 C 61.995 23.0974 58.49 20.2964 56.4 19.0644 C 55.122 18.3094 53.451 17.9144 51.934 18.0094 C 51.868 18.0134 51.81 18.0204 51.746 18.0244 C 52.147 18.6264 52.503 19.2614 52.796 19.9334 C 53.02 20.5164 54.913 25.7454 52.491 29.6714 L 48.269 36.0044 L 45.865 36.0044 L 50.827 28.5624 C 52.741 25.4584 51.003 20.8434 50.929 20.6494 C 49.226 16.7554 45.154 14.1674 40.538 14.0104 C 40.164 13.9974 39.95 14.0074 39.95 14.0084 L 39.948 14.0084 C 38.529 14.0084 37.29 14.2204 36.213 14.5294 L 32 7.7204 L 32 5.0044 L 34 5.0044 C 34.552 5.0044 35 4.5564 35 4.0044 C 35 3.4524 34.552 3.0044 34 3.0044 L 32 3.0044 L 32 1.0044 C 32 0.4524 31.552 0.0044 31 0.0044 C 30.448 0.0044 30 0.4524 30 1.0044 L 30 3.0044 L 28 3.0044 C 27.448 3.0044 27 3.4524 27 4.0044 C 27 4.5564 27.448 5.0044 28 5.0044 L 30 5.0044 L 30 7.7204 L 25.92 14.3144 C 25.054 14.1294 24.102 14.0084 23.047 14.0084 L 23.045 14.0084 C 23.045 14.0074 22.831 13.9974 22.458 14.0104 C 17.841 14.1674 13.769 16.7554 12.066 20.6494 C 11.992 20.8434 10.254 25.4584 12.168 28.5624 L 17.13 36.0044 L 14.726 36.0044 L 10.504 29.6714 C 8.082 25.7454 9.975 20.5164 10.199 19.9334 C 10.492 19.2614 10.849 18.6264 11.249 18.0244 C 11.185 18.0204 11.127 18.0134 11.062 18.0094 C 9.544 17.9144 7.874 18.3094 6.595 19.0644 C 4.505 20.2964 1 23.0974 1.001 27.9554 C 0.992 28.1434 0.794 32.5844 3.586 35.5254 C 3.748 35.6954 3.92 35.8514 4.094 36.0044 L 4 36.0044 C 2.346 36.0044 1 37.3504 1 39.0044 C 1 40.6584 2.346 42.0044 4 42.0044 L 4 52.0044 C 2.346 52.0044 1 53.3504 1 55.0044 C 1 56.6584 2.346 58.0044 4 58.0044 L 58 58.0044 C 59.654 58.0044 61 56.6584 61 55.0044 C 61 53.3504 59.654 52.0044 58 52.0044 L 58 42.0044 C 59.654 42.0044 61 40.6584 61 39.0044 L 61 39.0044 Z" stroke-linecap="round"/>
</g></svg>