<svg width="241" height="240" viewBox="0 0 241 240" fill="none" xmlns="http://www.w3.org/2000/svg">
<g clip-path="url(#clip0_1544_32524)">
<path fill-rule="evenodd" clip-rule="evenodd" d="M0.00396769 120.976C0.194251 144.369 7.22485 167.205 20.2411 186.668C33.4383 206.402 52.196 221.783 74.1422 230.866C96.0882 239.947 120.237 242.324 143.535 237.694C166.833 233.063 188.233 221.635 205.03 204.853C221.827 188.07 233.265 166.689 237.9 143.411C242.534 120.133 240.155 96.0051 231.066 74.078C221.976 52.1508 206.581 33.4094 186.83 20.2236C167.35 7.21861 144.494 0.194082 121.08 0.00396421L120.104 0H58.5873H0V120L0.00396769 120.976ZM61.5501 120.976C61.7373 132.207 65.1575 143.156 71.4113 152.507C77.8463 162.129 86.9924 169.629 97.6931 174.058C108.394 178.486 120.169 179.645 131.529 177.387C142.889 175.13 153.324 169.557 161.514 161.374C169.704 153.191 175.281 142.765 177.541 131.415C179.8 120.065 178.641 108.3 174.208 97.6086C169.776 86.9171 162.27 77.7789 152.639 71.3494C143.28 65.1011 132.322 61.6839 121.08 61.4968V120.976H61.5501Z" fill="#141418"/>
</g>
<defs>
<clipPath id="clip0_1544_32524">
<rect width="241" height="240" fill="white"/>
</clipPath>
</defs>
</svg>
